<svg xmlns:xlink="http://www.w3.org/1999/xlink" xmlns="http://www.w3.org/2000/svg" viewBox="0 0 48 48" width="48"  height="48" ><path d="M30.4 11.6H17.5c-3.3 0-6 2.7-6 6v12.9c0 3.3 2.7 6 6 6h12.9c3.3 0 6-2.7 6-6v-13c0-3.2-2.7-5.9-6-5.9zM24 31.7c-4.2 0-7.7-3.4-7.7-7.7 0-4.2 3.4-7.7 7.7-7.7 4.2 0 7.7 3.4 7.7 7.7 0 4.2-3.5 7.7-7.7 7.7zm8-14c-1 0-1.8-.8-1.8-1.8s.8-1.8 1.8-1.8 1.8.8 1.8 1.8-.8 1.8-1.8 1.8z"></path><path d="M24 0C10.7 0 0 10.7 0 24s10.7 24 24 24 24-10.7 24-24S37.3 0 24 0zm15 30.4c0 4.7-3.8 8.5-8.5 8.5h-13C12.9 39 9 35.1 9 30.4V17.5C9 12.8 12.9 9 17.5 9h12.9c4.7 0 8.5 3.8 8.5 8.5v12.9z"></path><path d="M24 18.9c-2.8 0-5.1 2.3-5.1 5.1s2.3 5.1 5.1 5.1 5.1-2.3 5.1-5.1-2.3-5.1-5.1-5.1z"></path></svg>