<svg xmlns:xlink="http://www.w3.org/1999/xlink" xmlns="http://www.w3.org/2000/svg" viewBox="0 0 48.1 48.1" width="48.1"  height="48.1" ><path d="M24.1 0C10.8 0 0 10.8 0 24.1s10.8 24.1 24.1 24.1 24.1-10.8 24.1-24.1S37.3 0 24.1 0zM35 18.4v.7c0 7.5-5.7 16.1-16.1 16.1-3.2 0-6.2-.9-8.7-2.5.4.1.9.1 1.4.1 2.7 0 5.1-.9 7-2.4-2.5 0-4.6-1.7-5.3-3.9.3.1.7.1 1.1.1.5 0 1-.1 1.5-.2-2.6-.5-4.5-2.8-4.5-5.6v-.1c.8.4 1.6.7 2.6.7-1.5-1-2.5-2.8-2.5-4.7 0-1 .3-2 .8-2.9 2.8 3.4 7 5.7 11.7 5.9-.1-.4-.1-.8-.1-1.3 0-3.1 2.5-5.7 5.7-5.7 1.6 0 3.1.7 4.1 1.8 1.3-.3 2.5-.7 3.6-1.4-.4 1.3-1.3 2.4-2.5 3.1 1.1-.1 2.2-.4 3.3-.9-1 1.3-1.9 2.3-3.1 3.1z"></path></svg>