<svg xmlns:xlink="http://www.w3.org/1999/xlink" xmlns="http://www.w3.org/2000/svg" viewBox="0 0 80.3 80.3" width="48.1"  height="48.1" ><path d="M40.2 0C18 0 0 18 0 40.2s18 40.2 40.2 40.2 40.2-18 40.2-40.2S62.3 0 40.2 0zm25.5 53.1c-.6 2.3-2.4 4.1-4.7 4.7C56.8 59 40.2 59 40.2 59s-16.7 0-20.8-1.1c-2.3-.6-4.1-2.4-4.7-4.7-1.1-4.2-1.1-12.9-1.1-12.9s0-8.7 1.1-12.9c.6-2.3 2.4-4.1 4.7-4.7 4.2-1.1 20.8-1.1 20.8-1.1s16.7 0 20.8 1.1c2.3.6 4.1 2.4 4.7 4.7 1.1 4.2 1.1 12.9 1.1 12.9s0 8.6-1.1 12.8z"></path><path d="M32.5 50.9l18.8-10.7-18.8-10.7z"></path></svg>